<?xml version="1.0" encoding="UTF-8"?>
<svg width="80px" height="40px" viewBox="0 0 80 40" version="1.1" xmlns="http://www.w3.org/2000/svg" xmlns:xlink="http://www.w3.org/1999/xlink">
    <title>☞</title>
    <defs>
        <path d="M298.768,186.858 C305.158,186.858 307.927,185.154 307.927,182.527 C307.927,181.462 307.643,180.681 307.075,179.829 L307.146,179.332 C309.205,180.61 312.187,181.533 317.938,181.533 C322.127,181.533 325.535,180.823 328.943,179.687 C331.144,180.397 333.345,180.681 334.907,180.681 C338.315,180.681 339.806,178.906 339.806,176.776 C339.806,175.995 339.38,175.285 338.883,174.717 C341.794,174.362 343.214,172.445 343.214,170.67 C343.214,169.392 342.93,168.54 342.22,167.901 C346.409,167.049 348.397,164.99 348.397,162.079 C348.397,159.168 346.906,157.677 345.202,156.47 C345.983,156.399 346.622,156.257 347.545,156.044 C348.823,156.328 350.314,156.683 352.302,156.683 C354.29,156.683 355.781,156.399 356.562,156.115 C357.556,156.328 358.976,156.47 360.183,156.47 C363.804,156.47 366.147,155.618 366.147,152.849 C366.147,150.08 363.662,147.595 341.084,147.595 C327.168,147.595 317.299,149.228 307.927,153.772 L306.72,153.204 C305.655,150.719 302.105,150.364 298.484,150.364 C293.159,150.364 290.177,152.068 288.686,156.399 C287.55,159.807 287.053,164.138 287.053,168.327 C287.053,172.942 287.763,177.415 288.828,180.681 C290.319,185.154 293.514,186.858 298.768,186.858 Z M321.133,179.474 C320.54725,179.474 319.937787,179.465264 319.314206,179.439191 L318.896498,179.419147 C312.95233,179.096127 305.939,177.056302 305.939,166.055 C305.939,161.937 306.578,155.973 311.69,153.843 C317.938,151.216 326.316,149.157 340.8,149.157 C362.739,149.157 364.656,151.216 364.656,152.707 C364.656,154.198 363.378,154.34 361.674,154.34 C359.97,154.34 357.698,153.914 356.491,153.204 C355.497,153.772 354.148,154.056 352.515,154.056 C350.882,154.056 348.539,153.63 348.042,153.062 C345.983,154.482 342.859,155.263 336.753,154.198 C334.907,152.849 330.505,150.719 325.038,152.21 L325.18,153.346 C329.156,152.423 333.629,153.985 336.469,155.689 L343.569,156.47 C343.427,159.381 341.865,161.511 337.96,161.511 C334.055,161.511 331.357,159.594 329.511,157.535 C328.943,158.671 325.535,160.588 323.192,160.162 C322.34,164.28 318.932,168.185 313.323,169.818 L313.323,170.244 C317.725,170.457 318.932,171.38 319.926,173.155 C321.133,175.285 322.908,177.415 325.18,177.77 C325.677,178.125 326.245,178.48 326.742,178.764 C325.038,179.19 322.837,179.474 321.133,179.474 Z M303.099,182.527 C300.33,182.527 298.271,177.273 298.271,167.546 C298.271,159.452 299.975,154.056 304.377,154.056 C305.158,154.056 305.868,154.269 306.578,154.837 C304.093,157.748 303.17,162.434 303.17,166.481 C303.17,170.528 304.235,175.569 306.01,178.622 C306.01,181.036 304.59,182.527 303.099,182.527 Z M341.865,159.523 L341.936,159.168 C340.374,159.168 337.747,157.677 337.321,156.186 L336.895,156.186 C336.824,158.671 337.818,160.304 341.865,159.523 Z M337.108,166.907 C333.487,166.907 326.245,165.558 326.245,162.647 C326.245,161.653 327.523,160.375 329.156,160.375 C330.647,161.653 333.984,163.357 337.747,163.357 C341.865,163.357 344.492,160.588 344.279,157.393 C345.841,158.529 346.835,160.02 346.835,161.582 C346.835,164.28 344.492,166.907 337.108,166.907 Z M332.067,165.487 C333.345,165.132 333.842,164.067 332.848,162.789 L332.564,162.789 C332.564,163.499 332.138,165.061 331.854,165.345 L332.067,165.487 Z M338.102,173.297 C333.274,173.297 323.76,171.238 323.76,168.114 C323.76,166.694 324.896,165.558 326.387,165.558 C328.446,166.694 331.783,168.398 337.037,168.398 C338.457,168.398 339.806,168.327 340.942,168.185 C341.439,168.611 341.723,169.321 341.723,170.315 C341.723,171.806 340.161,173.297 338.102,173.297 Z M329.866,171.238 C331.854,170.741 332.28,169.676 331.002,167.972 L330.647,168.043 C330.789,169.179 330.576,170.528 329.724,171.025 L329.866,171.238 Z M334.836,179.261 C331.712,179.261 323.192,176.35 323.192,173.652 C323.192,172.445 324.044,171.806 325.18,171.806 C328.233,173.51 333.132,174.717 337.321,174.788 C337.818,175.143 338.102,175.995 338.102,176.705 C338.102,178.054 337.108,179.261 334.836,179.261 Z M327.949,176.847 C329.511,176.705 330.576,175.924 329.582,174.007 L329.156,174.007 C329.156,175.001 328.801,176.208 327.807,176.634 L327.949,176.847 Z M302.886,180.042 C303.596,180.042 304.164,179.474 304.164,178.693 C304.164,177.983 303.596,177.415 302.886,177.415 C302.105,177.415 301.537,177.983 301.537,178.693 C301.537,179.474 302.105,180.042 302.886,180.042 Z" id="path-1"></path>
    </defs>
    <g id="Page-1" stroke="none" stroke-width="1" fill="none" fill-rule="evenodd">
        <g id="Desktop" transform="translate(-364.000000, -872.000000)" fill="#EEE5E0" fill-rule="nonzero">
            <g id="☞" transform="translate(77.000000, 725.000000)">
                <use xlink:href="#path-1"></use>
                <use xlink:href="#path-1"></use>
            </g>
        </g>
    </g>
</svg>